<svg width="158" height="16" viewBox="0 0 158 16" fill="none" xmlns="http://www.w3.org/2000/svg">
<rect x="40" y="4" width="8" height="8" rx="4" stroke="#64D370" stroke-width="2"/>
<rect x="86" y="4" width="8" height="8" rx="4" stroke="#64D370" stroke-width="2"/>
<rect x="111" y="4" width="8" height="8" rx="4" stroke="#64D370" stroke-width="2"/>
<path d="M0.292893 7.29289C-0.097631 7.68342 -0.097631 8.31658 0.292893 8.70711L6.65685 15.0711C7.04738 15.4616 7.68054 15.4616 8.07107 15.0711C8.46159 14.6805 8.46159 14.0474 8.07107 13.6569L2.41421 8L8.07107 2.34315C8.46159 1.95262 8.46159 1.31946 8.07107 0.928932C7.68054 0.538408 7.04738 0.538408 6.65685 0.928932L0.292893 7.29289ZM2 7H1L1 9H2L2 7Z" fill="#64D370"/>
<path d="M157.707 8.70711C158.098 8.31658 158.098 7.68342 157.707 7.29289L151.343 0.928932C150.953 0.538408 150.319 0.538408 149.929 0.928932C149.538 1.31946 149.538 1.95262 149.929 2.34315L155.586 8L149.929 13.6569C149.538 14.0474 149.538 14.6805 149.929 15.0711C150.319 15.4616 150.953 15.4616 151.343 15.0711L157.707 8.70711ZM156 9H157V7H156V9Z" fill="#64D370"/>
<circle cx="67" cy="8" r="7" fill="#DEE6EE"/>
<path d="M74 8C74 9.15116 73.7161 10.2845 73.1734 11.2998C72.6308 12.315 71.8461 13.1807 70.889 13.8203C69.9318 14.4598 68.8317 14.8535 67.6861 14.9663C66.5405 15.0791 65.3847 14.9077 64.3212 14.4672C63.2577 14.0266 62.3192 13.3306 61.5889 12.4408C60.8586 11.5509 60.3591 10.4947 60.1345 9.36563C59.9099 8.2366 59.9673 7.0696 60.3014 5.96801C60.6356 4.86642 61.2363 3.86424 62.0503 3.05025L67 8H74Z" fill="#64D370"/>
<circle cx="67" cy="8" r="5" fill="#F5FAFE"/>
</svg>
